<?xml version="1.0" standalone="no"?>
<!DOCTYPE svg PUBLIC "-//W3C//DTD SVG 20010904//EN"
 "http://www.w3.org/TR/2001/REC-SVG-20010904/DTD/svg10.dtd">
<svg version="1.0" xmlns="http://www.w3.org/2000/svg"
 width="1950.000000pt" height="1950.000000pt" viewBox="0 0 1950.000000 1950.000000"
 preserveAspectRatio="xMidYMid meet">

<g transform="translate(0.000000,1950.000000) scale(0.100000,-0.100000)"
fill="#000000" stroke="none">
<path d="M0 9750 l0 -9750 9750 0 9750 0 0 9750 0 9750 -9750 0 -9750 0 0
-9750z m13481 6606 c2186 -1105 3977 -2012 3980 -2015 8 -7 -1068 -754 -1085
-754 -6 0 -1556 777 -3444 1728 -2681 1349 -3437 1726 -3452 1719 -29 -14
-5260 -3468 -5260 -3474 0 -3 1747 -1125 3883 -2495 2135 -1369 5093 -3266
6572 -4215 1480 -949 2711 -1739 2737 -1755 27 -17 48 -33 48 -36 0 -3 -1791
-891 -3980 -1974 -2727 -1348 -3985 -1965 -3997 -1961 -10 4 -1693 890 -3741
1968 -2899 1528 -3720 1964 -3710 1974 17 15 1035 673 1052 680 7 3 1435 -750
3172 -1674 1738 -924 3178 -1689 3200 -1700 l41 -21 2914 1344 c1603 739 2920
1348 2926 1352 8 5 -2364 1498 -6622 4168 -3649 2288 -6634 4163 -6632 4167 3
10 7411 4988 7418 4985 3 -1 1794 -906 3980 -2011z m3959 -6886 l0 -2730 -475
317 -475 316 0 1249 c0 686 -2 1248 -5 1248 -2 0 -670 -492 -1482 -1093 -813
-602 -1487 -1100 -1499 -1107 -18 -11 -36 -2 -180 90 -177 114 -174 111 -232
196 -23 34 -47 68 -54 75 -7 8 -19 25 -26 39 -7 14 -24 41 -38 60 -14 19 -33
46 -42 59 -9 13 -23 29 -29 36 -7 8 -13 16 -13 19 0 6 -114 174 -172 253 -21
29 -38 57 -38 63 0 6 -7 13 -15 16 -8 3 -17 15 -21 27 -4 12 -16 35 -28 50
l-21 29 34 27 c41 32 4805 3491 4809 3491 1 0 2 -1229 2 -2730z m-11636 -980
l3735 -2220 481 390 480 391 475 -368 c261 -202 471 -370 467 -374 -47 -43
-1828 -1512 -1836 -1515 -7 -3 -1487 835 -3290 1862 -1802 1026 -3280 1863
-3284 1860 -3 -4 -12 -343 -19 -754 -7 -411 -14 -805 -15 -876 l-3 -129 -509
-274 c-280 -150 -511 -271 -514 -269 -4 5 73 4029 84 4324 3 94 8 172 10 172
2 0 1684 -999 3738 -2220z"/>
</g>
</svg>
